<?xml version="1.0" encoding="UTF-8" standalone="no"?>
<!-- Generator: Adobe Illustrator 25.2.3, SVG Export Plug-In . SVG Version: 6.00 Build 0)  -->

<svg
   version="1.0"
   id="svg111794"
   x="0px"
   y="0px"
   width="22.67578px"
   height="22.67581px"
   viewBox="0 0 22.67578 22.67581"
   enable-background="new 0 0 22.67578 22.67581"
   xml:space="preserve"
   sodipodi:docname="WDR-8_SmallKnob.svg"
   inkscape:version="1.3-dev (ea62cf6, 2022-09-19)"
   xmlns:inkscape="http://www.inkscape.org/namespaces/inkscape"
   xmlns:sodipodi="http://sodipodi.sourceforge.net/DTD/sodipodi-0.dtd"
   xmlns="http://www.w3.org/2000/svg"
   xmlns:svg="http://www.w3.org/2000/svg"><defs
   id="defs5" />
<sodipodi:namedview
   bordercolor="#666666"
   borderopacity="1.0"
   fit-margin-bottom="0"
   fit-margin-left="0"
   fit-margin-right="0"
   fit-margin-top="0"
   id="base"
   inkscape:current-layer="layer4"
   inkscape:cx="74.246212"
   inkscape:cy="8.0433396"
   inkscape:document-units="mm"
   inkscape:pageopacity="0.0"
   inkscape:pageshadow="2"
   inkscape:window-height="1011"
   inkscape:window-maximized="1"
   inkscape:window-width="1920"
   inkscape:window-x="2560"
   inkscape:window-y="32"
   inkscape:zoom="5.6568543"
   pagecolor="#ffffff"
   showgrid="false"
   inkscape:showpageshadow="0"
   inkscape:pagecheckerboard="0"
   inkscape:deskcolor="#d1d1d1"
   showguides="false">
	</sodipodi:namedview>
<g
   id="g5"
   style="fill:#000000;fill-opacity:1">
	<path
   opacity="0.4"
   enable-background="new    "
   d="M12.21259,0.01844v1.00361c-0.28908-0.02435-0.57936-0.04424-0.8747-0.04424   c-0.29365,0-0.58225,0.01989-0.86965,0.04388V0.01808C4.6154,0.46528-0.00001,5.34337-0.00001,11.32006   c0,6.27153,5.07611,11.35574,11.3379,11.35574s11.3379-5.08422,11.3379-11.35574   C22.67579,5.34518,18.06303,0.46805,12.21259,0.01844z M11.33789,1.70068c0.29534,0,0.5861,0.01808,0.8747,0.04412v0.60764   c4.57329,0.44153,8.15273,4.27998,8.15273,8.96762c0,4.98393-4.04182,9.02428-9.02743,9.02428   c-4.98572,0-9.02743-4.04035-9.02743-9.02428c0-4.68933,3.58209-8.52898,8.15778-8.96823V1.74456   C10.75516,1.71876,11.04424,1.70068,11.33789,1.70068z"
   id="path1"
   style="stroke:none;stroke-opacity:1;fill:#0c0c0c;fill-opacity:1;opacity:1" /><circle
   style="opacity:1;fill:none;fill-opacity:1;stroke:#9e9e9e;stroke-width:0.18897638;stroke-miterlimit:4.1;stroke-dasharray:none;stroke-opacity:1"
   id="path2"
   cx="11.33789"
   cy="11.34694"
   r="10.397055" />
	
	
	
	
	
<path
   fill="#ededed"
   d="m 12.21254,0.01809 -1.7443,-10e-6 6e-5,4.6548199 c 4e-6,0.28613 0.23196,0.51809 0.51809,0.51809 h 0.70814 c 0.28613,0 0.51809,-0.23196 0.51809,-0.51809 l -3e-5,-4.6544599 z"
   id="path3"
   sodipodi:nodetypes="ccsssscc"
   style="fill:#0c0c0c;fill-opacity:1;opacity:1" /></g>
<g
   inkscape:groupmode="layer"
   id="layer4"
   inkscape:label="palette"
   style="display:none"><rect
     style="fill:#e02a12;fill-opacity:1;stroke:none;stroke-width:0.427696;stroke-miterlimit:4.1"
     id="rect4"
     width="11.464143"
     height="5.4005737"
     x="67.718231"
     y="-6.8932996" /><rect
     style="fill:#ff5a00;fill-opacity:1;stroke:none;stroke-width:0.427696;stroke-miterlimit:4.1"
     id="rect5-3"
     width="11.464143"
     height="5.4005737"
     x="67.718231"
     y="-1.0721624" /><rect
     style="fill:#fdf189;fill-opacity:1;stroke:none;stroke-width:0.427696;stroke-miterlimit:4.1"
     id="rect6"
     width="11.464143"
     height="5.4005737"
     x="67.718231"
     y="4.7489748" /><rect
     style="fill:#d54400;fill-opacity:1;stroke:none;stroke-width:0.427696;stroke-miterlimit:4.1"
     id="rect7"
     width="11.464143"
     height="5.4005737"
     x="79.889694"
     y="-1.0721624" /><rect
     style="fill:#ffffff;fill-opacity:1;stroke:none;stroke-width:0.427696;stroke-miterlimit:4.1"
     id="rect8"
     width="11.464143"
     height="5.4005737"
     x="67.718231"
     y="10.570111" /><rect
     style="fill:#86918e;fill-opacity:1;stroke:none;stroke-width:0.427696;stroke-miterlimit:4.1"
     id="rect9"
     width="11.464143"
     height="5.4005737"
     x="67.718231"
     y="16.391249" /><rect
     style="fill:#1d1d1c;fill-opacity:1;stroke:none;stroke-width:0.427696;stroke-miterlimit:4.1"
     id="rect10"
     width="11.464143"
     height="5.4005737"
     x="79.889694"
     y="16.391249" /></g></svg>
