<?xml version="1.0" encoding="UTF-8" standalone="no"?>
<!-- Generator: Adobe Illustrator 25.2.3, SVG Export Plug-In . SVG Version: 6.00 Build 0)  -->

<svg
   version="1.0"
   id="svg111794"
   x="0px"
   y="0px"
   width="12.053"
   height="12.053"
   viewBox="0 0 12.053 12.053"
   enable-background="new 0 0 17.85552 17.85938"
   xml:space="preserve"
   sodipodi:docname="WDR-8_TinyTrimpot.svg"
   inkscape:version="1.3-dev (ea62cf6, 2022-09-19)"
   xmlns:inkscape="http://www.inkscape.org/namespaces/inkscape"
   xmlns:sodipodi="http://sodipodi.sourceforge.net/DTD/sodipodi-0.dtd"
   xmlns="http://www.w3.org/2000/svg"
   xmlns:svg="http://www.w3.org/2000/svg"><defs
   id="defs2" /><sodipodi:namedview
   id="namedview2"
   pagecolor="#505050"
   bordercolor="#eeeeee"
   borderopacity="1"
   inkscape:showpageshadow="0"
   inkscape:pageopacity="0"
   inkscape:pagecheckerboard="0"
   inkscape:deskcolor="#505050"
   showgrid="false"
   inkscape:zoom="32"
   inkscape:cx="5.03125"
   inkscape:cy="5.796875"
   inkscape:window-width="1920"
   inkscape:window-height="1011"
   inkscape:window-x="2560"
   inkscape:window-y="32"
   inkscape:window-maximized="1"
   inkscape:current-layer="svg111794" />
<g
   id="g2"
   transform="matrix(0.675,0,0,0.675,-8.3127493e-4,0.00373509)">
	<path
   opacity="0.99"
   fill="#EDEDED"
   enable-background="new    "
   d="M 7.85074,0.82529002 H 9.9412003 L 9.9412,4.47045 c 0,0.29768 -0.24131,0.53899 -0.53899,0.53899 H 8.38973 c -0.29768,0 -0.53899,-0.24131 -0.53899,-0.53899 z"
   id="path1"
   style="fill:#181818;fill-opacity:1"
   sodipodi:nodetypes="ccssssc" />
	<path
   opacity="0.4"
   d="m 9.94122,0.89518 v 1.20435 c 3.33276,0.49072 5.89355,3.354 5.89355,6.823 0,3.81384 -3.09167,6.90552 -6.9054,6.90552 -3.81373,0 -6.9054,-3.09167 -6.9054,-6.90552 0,-3.4458 2.52661,-6.29382 5.82678,-6.81274 V 0.90544 C 3.88995,1.434 0.83209,4.8173 0.83209,8.92253 c 0,4.47217 3.62524,8.09741 8.09729,8.09741 4.47205,0 8.09729,-3.62525 8.09729,-8.09741 0,-4.12842 -3.09204,-7.52832 -7.08545,-8.02735 z"
   id="path2"
   style="opacity:0.697874;fill:#191919;fill-opacity:1" />
	<rect
   x="7.85074"
   y="0.82529002"
   opacity="0.58"
   fill="#FFFFFF"
   width="2.0904601"
   height="1.2845"
   id="rect2"
   style="fill:#101010;fill-opacity:1" />
</g>
</svg>
